<svg width="335" height="76" viewBox="0 0 335 76" fill="none" xmlns="http://www.w3.org/2000/svg">
<path d="M0 74.4L24.0102 4.7H34.3146L61.4262 74.4H51.2219L40.1171 45.9H11.605L1.80077 74.4H0ZM25.0107 6.9L12.2052 44.2H39.5169L25.0107 6.9Z" fill="#202020"/>
<path d="M69.4124 24.4H78.8165V47.2H111.931V24.4H121.335V74.2H111.931V48.7H78.8165V74.2H69.4124V24.4Z" fill="#202020"/>
<path d="M131.353 74.4V0H140.857V47.2C142.958 47.2 145.059 47.1 147.26 47.1C150.061 47.1 152.962 47.2 155.763 47.7L170.47 24.5H172.37L157.464 48C171.97 51 176.172 60.7 176.172 74.4H166.368C166.368 61.3 165.768 48.4 149.361 48.4H140.857V74.4H131.353Z" fill="#202020"/>
<path d="M183.195 49.4C183.195 34.1 193.1 22.9 211.107 22.9C232.116 22.9 234.317 37.4 234.317 54.1H193.5C194.7 65.8 200.603 74.3 211.107 74.3C220.211 74.3 228.415 71.6 234.817 66L235.618 67C233.917 68.4 226.614 76 211.107 76C192.199 76 183.195 64.7 183.195 49.4ZM211.107 24.5C196.501 24.5 192.599 40.8 193.4 52.5H232.416C232.416 37.4 229.515 24.5 211.107 24.5Z" fill="#202020"/>
<path d="M253.92 26H234.112V24.4H283.033V26H263.424V74.4H253.92V26Z" fill="#202020"/>
<path d="M302.786 75.9C294.683 75.9 281.577 74.6 281.577 56.2C281.577 48.6 285.679 41.9 294.583 39.5L285.079 34.3C288.98 27.6 294.583 23 312.09 23C324.796 23 335 25.7 335 43V74.4H325.596V49.3C323.395 62.7 319.293 75.9 302.786 75.9ZM302.686 40.1C296.684 40.1 291.381 44.7 291.381 57.2C291.381 70.3 296.684 74.4 302.686 74.4C311.59 74.4 318.493 70.8 322.195 57.1C323.695 51.6 324.896 45.7 325.296 40.1H302.686ZM296.283 39C297.184 38.7 300.085 38.4 302.686 38.4H325.496C325.496 28.3 324.696 24.3 312.09 24.3C301.186 24.3 297.184 30.9 296.283 39Z" fill="#202020"/>
</svg>
