<svg width="493" height="102" viewBox="0 0 493 102" fill="none" xmlns="http://www.w3.org/2000/svg">
<path d="M64.6 74.9996H0V73.2996C4.2 73.2996 5.9 70.4996 12.4 51.7996C18.4 34.5996 27 9.19961 28.3 5.29961H38.6L65.1 73.2996C71.3 73.5996 76.3 78.7996 76.3 85.0996C76.3 91.4996 71 96.7996 64.6 96.7996C58.1 96.7996 52.8 91.4996 52.8 85.0996H54.5C54.5 90.5996 59 95.0996 64.6 95.0996C70.1 95.0996 74.6 90.5996 74.6 85.0996C74.6 79.4996 70.1 74.9996 64.6 74.9996ZM14 52.2996C9.6 64.8996 7.3 70.7996 4.6 73.2996H54.9L29.3 7.39961C26.9 14.4996 19.4 36.7996 14 52.2996Z" fill="#202020"/>
<path d="M76.1484 101.1V24.9996H85.6484V50.2996C86.1484 47.2996 86.6484 44.2996 87.6484 41.2996C91.8484 28.7996 97.2484 23.3996 108.348 23.3996C122.748 23.3996 132.148 33.6996 132.148 50.3996C132.148 72.5996 118.848 76.3996 102.448 76.3996C94.0484 76.3996 88.3484 73.9996 85.6484 72.5996V101.1H76.1484ZM89.1484 41.8996C86.1484 51.8996 85.7484 61.1996 85.6484 71.0996C88.3484 72.4996 94.0484 74.9996 102.448 74.9996C114.848 74.9996 122.248 71.5996 122.248 50.4996C122.248 35.8996 119.248 24.9996 108.448 24.9996C99.5484 24.9996 92.9484 29.2996 89.1484 41.8996Z" fill="#202020"/>
<path d="M134.102 49.9996C134.102 34.6996 144.002 23.4996 162.002 23.4996C183.002 23.4996 185.202 37.9996 185.202 54.6996H144.402C145.602 66.3996 151.502 74.8996 162.002 74.8996C171.102 74.8996 179.302 72.1996 185.702 66.5996L186.502 67.5996C184.802 68.9996 177.502 76.5996 162.002 76.5996C143.102 76.5996 134.102 65.2996 134.102 49.9996ZM162.002 25.0996C147.402 25.0996 143.502 41.3996 144.302 53.0996H183.302C183.302 37.9996 180.402 25.0996 162.002 25.0996Z" fill="#202020"/>
<path d="M215.4 76.5996C196.5 76.5996 187.5 65.2996 187.5 49.9996C187.5 34.6996 197.4 23.4996 215.4 23.4996C229.2 23.4996 235.8 29.7996 236.9 37.0996L235.2 37.4996C234.2 30.9996 228.9 25.0996 215.4 25.0996C205.8 25.0996 197.6 33.3996 197.6 49.9996C197.6 64.0996 203.6 74.8996 215.4 74.8996C224.5 74.8996 232.7 72.1996 239.1 66.5996L239.9 67.5996C238.2 68.9996 230.9 76.5996 215.4 76.5996Z" fill="#202020"/>
<path d="M266.845 76.5996C247.945 76.5996 238.945 65.2996 238.945 49.9996C238.945 34.6996 248.845 23.4996 266.845 23.4996C280.645 23.4996 287.245 29.7996 288.345 37.0996L286.645 37.4996C285.645 30.9996 280.345 25.0996 266.845 25.0996C257.245 25.0996 249.045 33.3996 249.045 49.9996C249.045 64.0996 255.045 74.8996 266.845 74.8996C275.945 74.8996 284.145 72.1996 290.545 66.5996L291.345 67.5996C289.645 68.9996 282.345 76.5996 266.845 76.5996Z" fill="#202020"/>
<path d="M323.444 46.1996H291.344V44.4996H323.444V46.1996Z" fill="#202020"/>
<path d="M325.953 74.9996V0.599609H335.453V47.7996C337.553 47.7996 339.653 47.6996 341.853 47.6996C344.653 47.6996 347.553 47.7996 350.353 48.2996L365.053 25.0996H366.953L352.053 48.5996C366.553 51.5996 370.753 61.2996 370.753 74.9996H360.953C360.953 61.8996 360.353 48.9996 343.953 48.9996H335.453V74.9996H325.953Z" fill="#202020"/>
<path d="M372.773 49.9996C372.773 32.4996 385.673 23.3996 401.973 23.3996C418.373 23.3996 431.173 32.4996 431.173 49.9996C431.173 67.4996 418.373 76.5996 401.973 76.5996C385.673 76.5996 372.773 67.4996 372.773 49.9996ZM401.973 24.8996C389.673 24.8996 382.573 32.6996 382.573 49.9996C382.573 67.0996 388.473 75.0996 401.973 75.0996C415.273 75.0996 421.373 67.0996 421.373 49.9996C421.373 32.6996 414.473 24.8996 401.973 24.8996Z" fill="#202020"/>
<path d="M430.703 74.9996V73.2996C434.903 73.2996 436.603 71.4996 443.103 52.5996C446.103 44.1996 452.603 24.9996 452.603 24.9996H462.803C470.103 43.6996 474.603 54.5996 481.603 73.2996C487.503 73.8996 492.303 78.8996 492.303 85.0996C492.303 91.4996 487.003 96.7996 480.603 96.7996C474.103 96.7996 468.803 91.4996 468.803 85.0996H470.503C470.503 90.5996 475.003 95.0996 480.603 95.0996C486.103 95.0996 490.603 90.5996 490.603 85.0996C490.603 79.5996 486.203 75.0996 480.703 74.9996H430.703ZM444.703 53.1996C443.003 57.8996 439.303 69.8996 435.503 73.3996H471.403L453.603 27.4996C450.703 35.8996 447.403 45.3996 444.703 53.1996Z" fill="#202020"/>
</svg>
