<svg width="511" height="92" viewBox="0 0 511 92" fill="none" xmlns="http://www.w3.org/2000/svg">
<path d="M9.5 69.9008H0V0.300781H9.5V33.0008H18.4C20.3 33.0008 22.1 33.1008 23.9 33.2008L44.3 0.300781H46.2L25.7 33.4008C43.3 35.6008 52.5 46.2008 52.5 66.0008V70.0008H41.6V66.0008C41.6 42.4008 34.4 34.4008 19.5 34.4008H9.5V69.9008Z" fill="#202020"/>
<path d="M53.5586 45.0008C53.5586 27.5008 66.4586 18.4008 82.7586 18.4008C99.1586 18.4008 111.959 27.5008 111.959 45.0008C111.959 62.5008 99.1586 71.6008 82.7586 71.6008C66.4586 71.6008 53.5586 62.5008 53.5586 45.0008ZM82.7586 19.9008C70.4586 19.9008 63.3586 27.7008 63.3586 45.0008C63.3586 62.1008 69.2586 70.1008 82.7586 70.1008C96.0586 70.1008 102.159 62.1008 102.159 45.0008C102.159 27.7008 95.2586 19.9008 82.7586 19.9008Z" fill="#202020"/>
<path d="M115.488 20.0008H153.188V21.5008H124.988V70.0008H115.488V20.0008Z" fill="#202020"/>
<path d="M144.184 70.0008V68.3008C148.384 68.3008 150.084 66.5008 156.584 47.6008C159.584 39.2008 166.084 20.0008 166.084 20.0008H176.284C183.584 38.7008 188.084 49.6008 195.084 68.3008C200.984 68.9008 205.784 73.9008 205.784 80.1008C205.784 86.5008 200.484 91.8008 194.084 91.8008C187.584 91.8008 182.284 86.5008 182.284 80.1008H183.984C183.984 85.6008 188.484 90.1008 194.084 90.1008C199.584 90.1008 204.084 85.6008 204.084 80.1008C204.084 74.6008 199.684 70.1008 194.184 70.0008H144.184ZM158.184 48.2008C156.484 52.9008 152.784 64.9008 148.984 68.4008H184.884L167.084 22.5008C164.184 30.9008 160.884 40.4008 158.184 48.2008Z" fill="#202020"/>
<path d="M216.399 71.5008C208.299 71.5008 195.199 70.2008 195.199 51.8008C195.199 44.2008 199.299 37.5008 208.199 35.1008L198.699 29.9008C202.599 23.2008 208.199 18.6008 225.699 18.6008C238.399 18.6008 248.599 21.3008 248.599 38.6008V70.0008H239.199V44.9008C236.999 58.3008 232.899 71.5008 216.399 71.5008ZM216.299 35.7008C210.299 35.7008 204.999 40.3008 204.999 52.8008C204.999 65.9008 210.299 70.0008 216.299 70.0008C225.199 70.0008 232.099 66.4008 235.799 52.7008C237.299 47.2008 238.499 41.3008 238.899 35.7008H216.299ZM209.899 34.6008C210.799 34.3008 213.699 34.0008 216.299 34.0008H239.099C239.099 23.9008 238.299 19.9008 225.699 19.9008C214.799 19.9008 210.799 26.5008 209.899 34.6008Z" fill="#202020"/>
<path d="M288.652 70.0008V20.0008H298.152V68.3008C305.952 68.2008 329.452 64.8008 331.352 26.5008V20.0008H340.752V70.0008H331.352V39.6008C329.152 49.5008 325.352 56.9008 319.252 62.2008C310.852 69.5008 302.752 70.0008 292.952 70.0008C291.552 70.0008 290.152 70.0008 288.652 70.0008Z" fill="#202020"/>
<path d="M380.801 20.0008H418.501V21.5008H390.301V70.0008H380.801V20.0008Z" fill="#202020"/>
<path d="M409.496 70.0008V68.3008C413.696 68.3008 415.396 66.5008 421.896 47.6008C424.896 39.2008 431.396 20.0008 431.396 20.0008H441.596C448.896 38.7008 453.396 49.6008 460.396 68.3008C466.296 68.9008 471.096 73.9008 471.096 80.1008C471.096 86.5008 465.796 91.8008 459.396 91.8008C452.896 91.8008 447.596 86.5008 447.596 80.1008H449.296C449.296 85.6008 453.796 90.1008 459.396 90.1008C464.896 90.1008 469.396 85.6008 469.396 80.1008C469.396 74.6008 464.996 70.1008 459.496 70.0008H409.496ZM423.496 48.2008C421.796 52.9008 418.096 64.9008 414.296 68.4008H450.196L432.396 22.5008C429.496 30.9008 426.196 40.4008 423.496 48.2008Z" fill="#202020"/>
<path d="M458.559 45.0008C458.559 29.7008 468.459 18.5008 486.459 18.5008C507.459 18.5008 509.659 33.0008 509.659 49.7008H468.859C470.059 61.4008 475.959 69.9008 486.459 69.9008C495.559 69.9008 503.759 67.2008 510.159 61.6008L510.959 62.6008C509.259 64.0008 501.959 71.6008 486.459 71.6008C467.559 71.6008 458.559 60.3008 458.559 45.0008ZM486.459 20.1008C471.859 20.1008 467.959 36.4008 468.759 48.1008H507.759C507.759 33.0008 504.859 20.1008 486.459 20.1008Z" fill="#202020"/>
</svg>
