<svg width="136" height="64" viewBox="0 0 136 64" fill="none" xmlns="http://www.w3.org/2000/svg">
<path d="M97.4263 63.1699C87.757 63.1699 72.1191 61.6181 72.1191 39.6534C72.1191 30.581 77.0134 22.583 87.6377 19.7181L76.2972 13.5107C80.9528 5.51265 87.6377 0.0214844 108.528 0.0214844C123.688 0.0214844 135.864 3.24456 135.864 23.8961V61.3793H124.643V31.4166C122.017 47.4127 117.123 63.1699 97.4263 63.1699ZM97.3069 20.4343C90.1445 20.4343 83.8177 25.9255 83.8177 40.8471C83.8177 56.485 90.1445 61.3793 97.3069 61.3793C107.931 61.3793 116.168 57.0819 120.585 40.7278C122.375 34.1622 123.808 27.1192 124.285 20.4343H97.3069ZM89.667 19.1212C90.7414 18.7631 94.2032 18.405 97.3069 18.405H124.524C124.524 6.34826 123.569 1.57333 108.528 1.57333C95.5163 1.57333 90.7414 9.45197 89.667 19.1212Z" fill="#202020"/>
<path d="M0 1.69336H11.2211V28.9105H50.7336V1.69336H61.9547V61.1412H50.7336V30.7011H11.2211V61.1412H0V1.69336Z" fill="#202020"/>
</svg>
