<svg width="556" height="238" viewBox="0 0 556 238" fill="none" xmlns="http://www.w3.org/2000/svg">
<path d="M18.032 44.2405C18.032 14.2405 40.592 0.680545 65.312 0.560547C90.152 0.680545 112.712 14.2405 112.712 44.2405C112.712 74.8405 90.152 87.8005 65.312 87.9205C40.592 87.8005 18.032 74.8405 18.032 44.2405ZM65.312 2.48054C47.432 2.48054 30.032 13.0405 30.032 44.2405C30.032 75.5605 47.432 86.1206 65.312 86.1206C83.312 86.1206 100.712 75.5605 100.712 44.2405C100.712 13.0405 83.312 2.48054 65.312 2.48054Z" fill="black"/>
<path d="M147.465 87.9205C124.785 87.9205 113.985 74.3605 113.985 56.0005C113.985 37.6405 125.865 24.2005 147.465 24.2005C164.025 24.2005 171.945 31.7605 173.265 40.5205L171.225 41.0005C170.025 33.2005 163.665 26.1205 147.465 26.1205C135.945 26.1205 126.105 36.0805 126.105 56.0005C126.105 72.9205 133.305 85.8805 147.465 85.8805C158.385 85.8805 168.225 82.6405 175.905 75.9205L176.865 77.1205C174.825 78.8005 166.065 87.9205 147.465 87.9205Z" fill="black"/>
<path d="M197.623 27.9205H173.863V26.0005H232.543V27.9205H209.023V86.0005H197.623V27.9205Z" fill="black"/>
<path d="M250.238 87.8005C240.518 87.8005 224.798 86.2405 224.798 64.1605C224.798 55.0405 229.718 47.0005 240.398 44.1205L228.998 37.8805C233.678 29.8405 240.398 24.3205 261.398 24.3205C276.638 24.3205 288.878 27.5605 288.878 48.3205V86.0005H277.598V55.8805C274.958 71.9605 270.038 87.8005 250.238 87.8005ZM250.118 44.8405C242.918 44.8405 236.558 50.3605 236.558 65.3605C236.558 81.0806 242.918 86.0005 250.118 86.0005C260.798 86.0005 269.078 81.6805 273.518 65.2405C275.318 58.6405 276.758 51.5605 277.238 44.8405H250.118ZM242.438 43.5205C243.518 43.1605 246.998 42.8005 250.118 42.8005H277.478C277.478 30.6805 276.518 25.8805 261.398 25.8805C248.318 25.8805 243.518 33.8005 242.438 43.5205Z" fill="black"/>
<path d="M292.311 86.0005H290.151L310.551 26.0005H322.791L346.071 86.0005H333.831L311.631 28.8805L292.311 86.0005Z" fill="black"/>
<path d="M349.715 86.0005V26.0005H361.115V83.9605C370.475 83.8405 398.675 79.7605 400.955 33.8005V26.0005H412.235V86.0005H400.955V49.5205C398.315 61.4005 393.755 70.2805 386.435 76.6405C376.355 85.4006 366.635 86.0005 354.875 86.0005C353.195 86.0005 351.515 86.0005 349.715 86.0005Z" fill="black"/>
<path d="M449.926 87.9205C427.246 87.9205 416.446 74.3605 416.446 56.0005C416.446 37.6405 428.326 24.2005 449.926 24.2005C466.486 24.2005 474.406 31.7605 475.726 40.5205L473.686 41.0005C472.486 33.2005 466.126 26.1205 449.926 26.1205C438.406 26.1205 428.566 36.0805 428.566 56.0005C428.566 72.9205 435.766 85.8805 449.926 85.8805C460.846 85.8805 470.686 82.6405 478.366 75.9205L479.326 77.1205C477.286 78.8005 468.526 87.9205 449.926 87.9205Z" fill="black"/>
<path d="M482.324 86.0005V25.8805H493.724V39.6805H508.604C523.844 39.6805 541.964 44.2405 541.964 62.7205C541.964 83.6005 525.644 86.0005 505.364 86.0005H482.324ZM493.724 84.3205H505.364C522.044 84.3205 529.964 79.7605 529.964 62.7205C529.964 45.8005 519.284 41.2405 508.604 41.2405H493.724V84.3205Z" fill="black"/>
<path d="M0.191406 146.001H11.5914V157.161C13.0314 152.121 18.1914 144.321 32.1114 144.321C41.8314 144.321 54.5514 145.881 54.5514 158.961C54.5514 168.201 49.7514 172.041 43.0314 173.481C53.4714 174.441 59.3514 177.561 59.3514 189.561C59.3514 205.641 44.5914 206.001 30.5514 206.001C29.9514 206.001 29.3514 206.001 28.7514 206.001H0.191406V146.001ZM32.3514 174.441H11.5914V204.081H27.9114C40.1514 204.081 47.1114 203.961 47.1114 189.681C47.1114 177.561 42.6714 174.441 32.3514 174.441ZM31.8714 146.001C9.07141 146.001 11.5914 167.841 11.5914 172.641H30.9114C38.1114 172.641 42.9114 171.201 42.9114 159.081C42.9114 148.521 38.9514 146.001 31.8714 146.001Z" fill="black"/>
<path d="M61.7664 176.001C61.7664 155.001 77.2464 144.081 96.8064 144.081C116.486 144.081 131.846 155.001 131.846 176.001C131.846 197.001 116.486 207.921 96.8064 207.921C77.2464 207.921 61.7664 197.001 61.7664 176.001ZM96.8064 145.881C82.0464 145.881 73.5264 155.241 73.5264 176.001C73.5264 196.521 80.6064 206.121 96.8064 206.121C112.766 206.121 120.086 196.521 120.086 176.001C120.086 155.241 111.806 145.881 96.8064 145.881Z" fill="black"/>
<path d="M147.482 206.001H136.082V146.001H195.002V206.001H183.602V147.561H147.482V206.001Z" fill="black"/>
<path d="M200.98 237.321V146.001H212.38V176.361C212.98 172.761 213.58 169.161 214.78 165.561C219.82 150.561 226.3 144.081 239.62 144.081C256.9 144.081 268.18 156.441 268.18 176.481C268.18 203.121 252.22 207.681 232.54 207.681C222.46 207.681 215.62 204.801 212.38 203.121V237.321H200.98ZM216.58 166.281C212.98 178.281 212.5 189.441 212.38 201.321C215.62 203.001 222.46 206.001 232.54 206.001C247.42 206.001 256.3 201.921 256.3 176.601C256.3 159.081 252.7 146.001 239.74 146.001C229.06 146.001 221.14 151.161 216.58 166.281Z" fill="black"/>
<path d="M270.524 176.001C270.524 155.001 286.004 144.081 305.564 144.081C325.244 144.081 340.604 155.001 340.604 176.001C340.604 197.001 325.244 207.921 305.564 207.921C286.004 207.921 270.524 197.001 270.524 176.001ZM305.564 145.881C290.804 145.881 282.284 155.241 282.284 176.001C282.284 196.521 289.364 206.121 305.564 206.121C321.524 206.121 328.844 196.521 328.844 176.001C328.844 155.241 320.564 145.881 305.564 145.881Z" fill="black"/>
<path d="M376.52 207.921C353.84 207.921 343.04 194.361 343.04 176.001C343.04 157.641 354.92 144.201 376.52 144.201C393.08 144.201 401 151.761 402.32 160.521L400.28 161.001C399.08 153.201 392.72 146.121 376.52 146.121C365 146.121 355.16 156.081 355.16 176.001C355.16 192.921 362.36 205.881 376.52 205.881C387.44 205.881 397.28 202.641 404.96 195.921L405.92 197.121C403.88 198.801 395.12 207.921 376.52 207.921Z" fill="black"/>
<path d="M431.958 206.001H408.918V145.881H420.318V159.681H435.198C450.438 159.681 468.558 164.241 468.558 182.721C468.558 203.601 452.238 206.001 431.958 206.001ZM420.318 204.321H431.958C448.638 204.321 456.558 199.761 456.558 182.721C456.558 165.801 445.878 161.241 435.198 161.241H420.318V204.321ZM490.038 205.881H478.638V145.881H490.038V205.881Z" fill="black"/>
<path d="M507.962 148.281L495.482 146.601C495.482 128.121 507.002 120.561 525.122 120.561C543.122 120.561 555.602 127.041 555.602 147.681C555.602 170.721 529.562 168.561 525.362 175.761C524.522 177.201 524.162 179.481 523.922 182.841H522.002C522.122 178.881 522.602 176.481 523.682 174.681C528.122 167.361 543.242 171.081 543.242 147.681C543.242 130.041 537.722 122.481 525.122 122.481C508.442 122.481 507.962 135.081 507.962 148.281ZM515.042 200.121C515.042 195.801 518.522 192.201 522.842 192.201C527.162 192.201 530.762 195.801 530.762 200.121C530.762 204.441 527.162 207.921 522.842 207.921C518.522 207.921 515.042 204.441 515.042 200.121Z" fill="black"/>
</svg>
