<svg width="759" height="115" viewBox="0 0 759 115" fill="none" xmlns="http://www.w3.org/2000/svg">
<path d="M695.68 53.6066C695.68 35.3425 707.498 21.9727 728.985 21.9727C754.053 21.9727 756.679 39.2818 756.679 59.2171H707.975C709.408 73.1838 716.451 83.3305 728.985 83.3305C739.848 83.3305 749.636 80.1074 757.276 73.4225L758.231 74.6163C756.202 76.2875 747.488 85.3598 728.985 85.3598C706.423 85.3598 695.68 71.8707 695.68 53.6066ZM728.985 23.8826C711.556 23.8826 706.901 43.3405 707.856 57.3071H754.411C754.411 39.2818 750.949 23.8826 728.985 23.8826Z" fill="#202020"/>
<path d="M623.328 83.4483V23.7617H634.669V81.419C643.98 81.2996 672.032 77.2409 674.301 31.521V23.7617H685.522V83.4483H674.301V47.1589C671.674 58.9768 667.138 67.8104 659.856 74.1372C649.829 82.8515 640.16 83.4483 628.461 83.4483C626.79 83.4483 625.119 83.4483 623.328 83.4483Z" fill="#202020"/>
<path d="M549.42 23.7617H560.641V50.9788H600.154V23.7617H611.375V83.2096H600.154V52.7694H560.641V83.2096H549.42V23.7617Z" fill="#202020"/>
<path d="M477.918 53.6066C477.918 35.3425 489.736 21.9727 511.223 21.9727C536.291 21.9727 538.918 39.2818 538.918 59.2171H490.213C491.646 73.1838 498.689 83.3305 511.223 83.3305C522.086 83.3305 531.875 80.1074 539.515 73.4225L540.47 74.6163C538.44 76.2875 529.726 85.3598 511.223 85.3598C488.662 85.3598 477.918 71.8707 477.918 53.6066ZM511.223 23.8826C493.795 23.8826 489.139 43.3405 490.094 57.3071H536.65C536.65 39.2818 533.188 23.8826 511.223 23.8826Z" fill="#202020"/>
<path d="M428.384 69.483C428.941 67.971 429.578 66.6977 430.294 65.6631L453.811 30.0898H459.899C459.103 31.4427 457.79 33.5119 455.959 36.2973C454.129 39.0827 452.02 42.2261 449.633 45.7278C447.325 49.2294 444.858 52.9299 442.231 56.8295C439.685 60.729 437.297 64.4296 435.069 67.9312C434.592 68.6474 434.035 69.5228 433.398 70.5574C432.761 71.5124 432.125 72.5469 431.488 73.6611C430.931 74.6956 430.453 75.7302 430.055 76.7648C429.657 77.7198 429.459 78.5156 429.459 79.1523C429.459 80.346 429.737 81.1816 430.294 81.6591C430.851 82.1366 431.567 82.3753 432.443 82.3753C433.398 82.3753 434.472 82.1366 435.666 81.6591C436.86 81.1816 437.974 80.6245 439.008 79.9879C441.635 78.3962 443.982 76.4863 446.051 74.258C448.2 71.9501 450.031 69.8411 451.543 67.9312L475.895 30.0898H481.983C477.844 36.6156 473.826 43.1413 469.926 49.6671C466.106 56.1928 461.888 62.6788 457.273 69.1249C455.76 71.1941 454.726 72.9051 454.169 74.258C453.691 75.6109 453.453 76.8444 453.453 77.9585C453.453 78.5952 453.572 79.2716 453.811 79.9879C454.845 81.5795 456.238 82.3753 457.989 82.3753C460.058 82.3753 462.406 81.4601 465.032 79.6297C467.499 77.9585 469.648 76.3271 471.478 74.7354C473.388 73.0642 475.457 71.3532 477.685 69.6024L478.521 70.438C477.407 71.3134 476.253 72.2684 475.059 73.303C473.865 74.258 472.672 75.2129 471.478 76.1679C470.364 77.1229 469.25 78.0381 468.135 78.9135C467.101 79.7093 466.225 80.3858 465.509 80.9429C463.918 81.8183 462.485 82.4549 461.212 82.8528C459.939 83.1711 458.785 83.3303 457.75 83.3303C456.556 83.3303 455.522 83.1711 454.646 82.8528C453.85 82.4549 453.134 81.9376 452.498 81.301C451.622 80.5052 450.986 79.5104 450.588 78.3167C450.269 77.0433 450.11 75.8098 450.11 74.6161C450.11 72.8653 450.309 71.4726 450.707 70.438C449.832 71.5522 448.996 72.5867 448.2 73.5417C447.404 74.4967 446.529 75.4119 445.574 76.2873C444.699 77.0831 443.664 77.9187 442.47 78.7941C441.356 79.59 440.043 80.4256 438.531 81.301C437.496 81.6989 436.342 82.1366 435.069 82.6141C433.796 83.012 432.602 83.2109 431.488 83.2109C430.215 83.2109 429.26 82.8926 428.623 82.256C427.509 80.9031 426.952 79.0727 426.952 76.7648C426.952 74.7752 427.151 73.1836 427.549 71.9899C427.946 70.7165 428.185 70.3186 428.265 70.7961C427.469 71.6715 426.673 72.5867 425.877 73.5417C425.082 74.4967 424.206 75.4119 423.251 76.2873C422.376 77.0831 421.341 77.9187 420.147 78.7941C419.033 79.59 417.72 80.4256 416.208 81.301C415.174 81.6989 414.02 82.1366 412.746 82.6141C411.473 83.012 410.279 83.2109 409.165 83.2109C407.892 83.2109 406.937 82.8926 406.3 82.256C405.186 80.9031 404.629 79.0727 404.629 76.7648C404.629 74.7752 404.947 72.7459 405.584 70.6768C406.3 68.6076 407.096 66.9364 407.971 65.6631L431.488 30.0898H437.576C436.78 31.4427 435.467 33.5119 433.637 36.2973C431.806 39.0827 429.697 42.2261 427.31 45.7278C425.002 49.2294 422.535 52.9299 419.909 56.8295C417.362 60.729 414.975 64.4296 412.746 67.9312C412.269 68.6474 411.712 69.5228 411.075 70.5574C410.438 71.5124 409.802 72.5469 409.165 73.6611C408.608 74.6956 408.131 75.7302 407.733 76.7648C407.335 77.7198 407.136 78.5156 407.136 79.1523C407.136 80.346 407.414 81.1816 407.971 81.6591C408.528 82.1366 409.245 82.3753 410.12 82.3753C411.075 82.3753 412.149 82.1366 413.343 81.6591C414.537 81.1816 415.651 80.6245 416.686 79.9879C419.312 78.3962 421.659 76.4863 423.729 74.258C425.877 71.9501 427.429 70.3584 428.384 69.483Z" fill="#202020"/>
<path d="M359.37 85.2402C349.7 85.2402 334.062 83.6884 334.062 61.7237C334.062 52.6513 338.957 44.6533 349.581 41.7884L338.241 35.581C342.896 27.5829 349.581 22.0918 370.471 22.0918C385.632 22.0918 397.808 25.3149 397.808 45.9664V83.4496H386.587V53.4869C383.961 69.483 379.066 85.2402 359.37 85.2402ZM359.25 42.5046C352.088 42.5046 345.761 47.9958 345.761 62.9174C345.761 78.5553 352.088 83.4496 359.25 83.4496C369.874 83.4496 378.111 79.1522 382.528 62.7981C384.319 56.2325 385.751 49.1895 386.229 42.5046H359.25ZM351.61 41.1915C352.685 40.8334 356.147 40.4753 359.25 40.4753H386.467C386.467 28.4186 385.512 23.6436 370.471 23.6436C357.46 23.6436 352.685 31.5223 351.61 41.1915Z" fill="#202020"/>
<path d="M275.112 83.4483H272.963L293.256 23.7617H305.432L328.591 83.4483H316.415L294.331 26.6267L275.112 83.4483Z" fill="#202020"/>
<path d="M230.354 23.7617H275.357V25.5523H241.694V83.4483H230.354V23.7617Z" fill="#202020"/>
<path d="M156.211 83.4483V23.7617H167.551V81.419C176.863 81.2996 204.915 77.2409 207.183 31.521V23.7617H218.404V83.4483H207.183V47.1589C204.557 58.9768 200.021 67.8104 192.739 74.1372C182.712 82.8515 173.043 83.4483 161.344 83.4483C159.673 83.4483 158.002 83.4483 156.211 83.4483Z" fill="#202020"/>
<path d="M79.2715 114.607V23.7635H90.6119V53.9649C91.2088 50.3837 91.8057 46.8025 92.9994 43.2213C98.0131 28.2997 104.459 21.8535 117.71 21.8535C134.899 21.8535 146.121 34.1489 146.121 54.0843C146.121 80.5851 130.244 85.1213 110.667 85.1213C100.639 85.1213 93.835 82.2564 90.6119 80.5852V114.607H79.2715ZM94.79 43.9376C91.2088 55.8749 90.7313 66.9766 90.6119 78.7946C93.835 80.4658 100.639 83.4501 110.667 83.4501C125.469 83.4501 134.303 79.3914 134.303 54.2037C134.303 36.7752 130.721 23.7635 117.829 23.7635C107.205 23.7635 99.3262 28.8965 94.79 43.9376Z" fill="#202020"/>
<path d="M11.3405 83.4492H0V0.246094H67.3265V83.4492H55.9861V2.15608H11.3405V83.4492Z" fill="#202020"/>
</svg>
