<svg width="470" height="170" viewBox="0 0 470 170" fill="none" xmlns="http://www.w3.org/2000/svg">
<path d="M401.938 25.498H414.949L448.016 79.8129L467.235 25.498H469.383L441.569 103.926C440.018 108.462 435.243 111.447 429.751 111.447C421.992 111.447 416.859 106.314 416.501 98.3157C416.143 91.034 422.47 85.1847 429.751 85.1847H438.585L401.938 25.498ZM429.751 87.0946C423.544 87.0946 418.53 92.1083 418.53 98.3157C418.53 102.971 422.47 109.417 429.513 109.417C434.049 109.417 438.466 107.03 439.779 103.21L445.389 87.0946H429.751Z" fill="#202020"/>
<path d="M333.001 41.7331C325.481 26.0952 334.314 0.310547 366.903 0.310547C374.304 0.310547 383.138 1.62366 393.165 4.84674C390.658 11.2929 389.465 14.516 386.6 14.516C384.57 14.516 381.705 12.606 388.152 17.5003C382.183 12.9641 369.41 9.02479 357.711 9.02479C347.326 9.02479 337.776 12.1285 334.314 20.604C332.166 25.4983 331.569 33.8544 334.195 39.465C339.805 28.9601 351.504 23.5883 365.232 23.5883C384.809 23.5883 400.089 34.4513 400.089 55.3416C400.089 76.2319 384.809 87.0949 365.232 87.0949C345.774 87.0949 330.375 76.2319 330.375 55.3416C330.375 50.2086 331.33 45.6724 333.001 41.7331ZM365.232 25.3789C350.549 25.3789 342.074 34.69 342.074 55.3416C342.074 75.7544 349.117 85.3043 365.232 85.3043C381.109 85.3043 388.39 75.7544 388.39 55.3416C388.39 34.69 380.154 25.3789 365.232 25.3789Z" fill="#202020"/>
<path d="M265.018 85.1849V25.3789H276.358V39.1068H291.16C306.321 39.1068 324.346 43.643 324.346 62.0265C324.346 82.7974 308.111 85.1849 287.937 85.1849H265.018ZM276.358 83.5137H287.937C304.53 83.5137 312.409 78.9775 312.409 62.0265C312.409 45.1949 301.785 40.6587 291.16 40.6587H276.358V83.5137Z" fill="#202020"/>
<path d="M271.605 57.6089C270.093 58.5638 267.825 60.2748 264.8 62.7419C261.856 65.2089 258.553 67.9943 254.892 71.098C251.311 74.2017 247.611 77.4646 243.791 80.8866C239.971 84.2291 236.429 87.2532 233.167 89.959C230.461 94.4952 227.596 99.6282 224.572 105.358C221.548 111.088 218.404 116.858 215.141 122.667C211.878 128.556 208.576 134.286 205.233 139.857C201.811 145.428 198.349 150.402 194.848 154.779C191.346 159.156 187.805 162.657 184.224 165.284C180.642 167.91 177.101 169.223 173.599 169.223C171.848 169.223 170.456 168.626 169.421 167.432C168.307 166.239 167.75 164.408 167.75 161.941C167.75 157.166 168.864 152.431 171.092 147.736C173.321 143.04 176.186 138.464 179.687 134.008C183.189 129.631 187.128 125.413 191.505 121.354C195.803 117.375 200.06 113.635 204.278 110.133C208.496 106.631 212.396 103.448 215.977 100.583C219.638 97.7183 222.503 95.2512 224.572 93.1821L236.151 75.2761C235.196 76.3107 234.082 77.4248 232.808 78.6185C231.615 79.7327 230.302 80.807 228.869 81.8416C227.516 82.7966 226.044 83.6322 224.452 84.3484C222.94 84.9851 221.428 85.3035 219.916 85.3035C218.245 85.3035 216.852 84.9851 215.738 84.3484C214.703 83.6322 213.868 82.717 213.231 81.6029C212.595 80.4091 212.157 79.1358 211.918 77.7829C211.679 76.3505 211.56 74.918 211.56 73.4855C211.56 70.541 212.197 67.477 213.47 64.2938C214.743 61.0309 216.454 57.8874 218.603 54.8633C220.752 51.7596 223.259 48.815 226.124 46.0296C228.988 43.2443 232.013 40.817 235.196 38.7479C238.379 36.6788 241.602 35.0473 244.865 33.8536C248.208 32.5803 251.431 31.9436 254.534 31.9436C256.206 31.9436 257.519 32.2619 258.474 32.8986C259.508 33.4557 260.026 34.4107 260.026 35.7636L262.652 31.8242H268.262L235.793 85.1841C238.976 82.717 242.318 80.051 245.82 77.1861C249.322 74.3211 252.664 71.5357 255.847 68.8299C259.11 66.0446 262.095 63.5377 264.8 61.3094C267.586 59.0015 269.854 57.1711 271.605 55.8183V57.6089ZM258.235 37.7929C258.235 36.44 257.757 35.4054 256.802 34.6892C255.847 33.8934 254.574 33.4955 252.982 33.4955C250.834 33.4955 248.407 34.2515 245.701 35.7636C242.995 37.196 240.249 39.1458 237.464 41.6128C234.679 44.0799 231.933 46.905 229.227 50.0883C226.521 53.192 224.094 56.4151 221.945 59.7576C219.876 63.0204 218.205 66.2833 216.932 69.5462C215.658 72.7295 215.022 75.5944 215.022 78.141C215.022 79.8918 215.38 81.3243 216.096 82.4385C216.892 83.5526 218.165 84.1097 219.916 84.1097C221.587 84.1097 223.139 83.7516 224.572 83.0354C226.084 82.3191 227.476 81.4437 228.75 80.4091C230.023 79.295 231.217 78.141 232.331 76.9473C233.525 75.674 234.679 74.5201 235.793 73.4855L257.877 39.7029C258.116 38.9866 258.235 38.35 258.235 37.7929ZM222.304 97.3601C219.518 99.7476 216.255 102.453 212.515 105.478C208.854 108.502 205.074 111.725 201.175 115.147C197.195 118.648 193.296 122.309 189.476 126.129C185.656 130.029 182.234 133.968 179.21 137.947C176.186 142.006 173.758 146.104 171.928 150.242C170.098 154.381 169.182 158.439 169.182 162.419C169.182 165.92 170.336 167.671 172.644 167.671C175.111 167.671 177.817 166.318 180.762 163.612C183.706 160.986 186.77 157.564 189.953 153.346C193.057 149.128 196.201 144.393 199.384 139.141C202.488 133.888 205.472 128.636 208.337 123.384C211.202 118.211 213.828 113.316 216.216 108.701C218.603 104.085 220.632 100.305 222.304 97.3601Z" fill="#202020"/>
<path d="M164.032 86.9746C154.363 86.9746 138.725 85.4227 138.725 63.4581C138.725 54.3857 143.619 46.3877 154.243 43.5227L142.903 37.3153C147.558 29.3173 154.243 23.8262 175.133 23.8262C190.294 23.8262 202.47 27.0492 202.47 47.7008V85.184H191.249V55.2213C188.623 71.2173 183.728 86.9746 164.032 86.9746ZM163.912 44.239C156.75 44.239 150.423 49.7302 150.423 64.6518C150.423 80.2897 156.75 85.184 163.912 85.184C174.537 85.184 182.773 80.8866 187.19 64.5324C188.981 57.9669 190.413 50.9239 190.891 44.239H163.912ZM156.272 42.9259C157.347 42.5678 160.809 42.2096 163.912 42.2096H191.129C191.129 30.153 190.174 25.378 175.133 25.378C162.122 25.378 157.347 33.2566 156.272 42.9259Z" fill="#202020"/>
<path d="M71.502 25.4974H82.8424V36.5991C84.2749 31.5854 89.4079 23.8262 103.255 23.8262C112.924 23.8262 125.578 25.378 125.578 38.3897C125.578 47.5814 120.803 51.4014 114.118 52.8339C124.504 53.7888 130.353 56.8926 130.353 68.8299C130.353 84.8259 115.67 85.184 101.703 85.184C101.107 85.184 100.51 85.184 99.9128 85.184H71.502V25.4974ZM103.494 53.7888H82.8424V83.274H99.0772C111.253 83.274 118.177 83.1547 118.177 68.9492C118.177 56.8925 113.76 53.7888 103.494 53.7888ZM103.016 25.4974C80.3356 25.4974 82.8424 47.2233 82.8424 51.9982H102.062C109.224 51.9982 113.999 50.5658 113.999 38.5091C113.999 28.0042 110.06 25.4974 103.016 25.4974Z" fill="#202020"/>
<path d="M33.3051 87.0942C10.7436 87.0942 0 73.605 0 55.3409C0 37.0768 11.818 23.707 33.3051 23.707C49.7786 23.707 57.6573 31.2276 58.9704 39.9418L56.941 40.4193C55.7473 32.66 49.4205 25.617 33.3051 25.617C21.8453 25.617 12.0567 35.525 12.0567 55.3409C12.0567 72.1726 19.2191 85.0649 33.3051 85.0649C44.1681 85.0649 53.9567 81.8418 61.5966 75.1569L62.5516 76.3506C60.5222 78.0219 51.808 87.0942 33.3051 87.0942Z" fill="#202020"/>
</svg>
